<?xml version="1.0" ?><!DOCTYPE svg  PUBLIC '-//W3C//DTD SVG 1.1//EN'  'http://www.w3.org/Graphics/SVG/1.1/DTD/svg11.dtd'><svg enable-background="new 0 0 462.2 400.277" height="400.277px" id="Icons" version="1.1" viewBox="0 0 462.2 400.277" width="462.2px" xml:space="preserve" xmlns="http://www.w3.org/2000/svg" xmlns:xlink="http://www.w3.org/1999/xlink"><g><g><polygon fill="#674E9B" points="115.55,400.277 0,200.138 115.55,0 346.65,0 462.2,200.138 346.65,400.277   "/></g><g opacity="0.4"><path d="M343.746,384.533c-28.312-6.653-56.445-14.238-83.839-24.052c-13.936-4.993-24.249-9.271-37.301-15.648    c-12.378-6.048-24.288-13.085-36.125-20.118c-17.018-10.111-33.677-20.823-49.957-32.082    c-16.781-11.606-31.169-22.454-46.351-34.968c-15.418-12.709-30.214-26.171-44.275-40.367    c-6.725-6.789-13.23-13.793-19.551-20.959c-3.311-3.753-6.541-7.578-9.725-11.44c-0.209-0.253-0.411-0.511-0.618-0.765    l-9.24,16.005l112.168,194.281h224.336l5.086-8.808C346.818,385.252,345.281,384.894,343.746,384.533z"/></g><g opacity="0.4"><path d="M334.899,9.641c0.426,4.126,1.034,8.243,1.721,12.342c4.023,23.981,12.6,47.607,22.77,69.599    c12.125,26.219,28.474,50.327,47.353,72.137c12.031,13.899,25.78,27.671,40.77,39.167l0.418-0.736L334.899,9.641z" fill="#FFFFFF"/></g><path d="M230.877,85.01c-49.933,0-90.412,40.479-90.412,90.412c0,0.008,0,0.016,0,0.024c0,0.47,0,0.933,0,1.388   c0,0.165,0,0.306,0,0.47s0,0.564,0,0.87s0,0.47,0,0.682v0.235c2.611,65.692,71.243,148.177,71.243,148.177V218.299   c-23.711-10.618-34.324-38.448-23.706-62.158c10.618-23.711,38.448-34.324,62.158-23.706s34.324,38.448,23.706,62.158   c-5.404,12.068-15.638,21.304-28.195,25.446v44.688c49.31-7.945,82.843-54.36,74.898-103.67   C313.483,117.078,275.424,84.809,230.877,85.01z" fill="#FFFFFF"/></g></svg>