<?xml version="1.0" ?><!DOCTYPE svg  PUBLIC '-//W3C//DTD SVG 1.1//EN'  'http://www.w3.org/Graphics/SVG/1.1/DTD/svg11.dtd'><svg enable-background="new 0 0 462.2 400.277" height="400.277px" id="Icons" version="1.1" viewBox="0 0 462.2 400.277" width="462.2px" xml:space="preserve" xmlns="http://www.w3.org/2000/svg" xmlns:xlink="http://www.w3.org/1999/xlink"><g><g><polygon fill="#E1558B" points="115.55,400.277 0,200.138 115.55,0 346.65,0 462.2,200.138 346.65,400.277   "/></g><g opacity="0.4"><path d="M343.746,384.533c-28.312-6.653-56.445-14.238-83.839-24.052c-13.936-4.993-24.249-9.271-37.301-15.648    c-12.378-6.048-24.288-13.085-36.125-20.118c-17.018-10.111-33.677-20.823-49.957-32.082    c-16.781-11.606-31.169-22.454-46.351-34.968c-15.418-12.709-30.214-26.171-44.275-40.367    c-6.725-6.789-13.23-13.793-19.551-20.959c-3.311-3.753-6.541-7.578-9.725-11.44c-0.209-0.253-0.411-0.511-0.618-0.765    l-9.24,16.005l112.168,194.281h224.336l5.086-8.808C346.818,385.252,345.281,384.894,343.746,384.533z"/></g><g opacity="0.4"><path d="M334.899,9.641c0.426,4.126,1.034,8.243,1.721,12.342c4.023,23.981,12.6,47.607,22.77,69.599    c12.125,26.219,28.474,50.327,47.353,72.137c12.031,13.899,25.78,27.671,40.77,39.167l0.418-0.736L334.899,9.641z" fill="#FFFFFF"/></g><g><path d="M330.965,206.796c0,26.722-9.673,49.751-29.004,69.082c-19.338,19.339-42.368,29.004-69.082,29.004    c-26.721,0-49.751-9.665-69.082-29.004c-19.338-19.331-29.004-42.36-29.004-69.082c0-26.713,9.666-49.743,29.004-69.082    c19.331-19.331,42.361-29.004,69.082-29.004c26.714,0,49.744,9.673,69.082,29.004    C321.293,157.053,330.965,180.083,330.965,206.796z M170.653,262.695c18.631-28.122,41.307-46.406,68.027-54.844    c1.401-0.7,2.456-1.055,3.164-1.055c-2.817-6.328-5.1-11.074-6.855-14.238c-12.31,3.873-25.576,6.773-39.814,8.701    c-14.238,1.937-24.611,2.9-31.113,2.9c-6.509,0-11.338,0-14.502,0v2.637C149.559,228.245,156.588,246.875,170.653,262.695z     M151.141,189.921c25.313,0,50.972-3.51,76.992-10.547c-5.273-9.138-15.474-25.131-30.586-47.988    C172.235,143.342,156.761,162.854,151.141,189.921z M265.575,283.789c-2.463-17.221-8.438-38.315-17.93-63.281h-0.527    c-14.064,4.927-26.548,11.783-37.441,20.566c-10.9,8.792-17.847,15.384-20.83,19.775c-2.99,4.4-5.363,8.355-7.119,11.865    c15.467,11.956,32.515,17.93,51.152,17.93C243.773,290.644,254.674,288.362,265.575,283.789z M213.368,125.586    c16.167,24.258,26.541,40.605,31.113,49.043c19.686-7.383,34.277-17.402,43.77-30.059c-15.82-14.057-34.277-21.094-55.371-21.094    C225.497,123.476,218.988,124.185,213.368,125.586z M250.809,187.285c0.701,1.055,1.665,2.991,2.9,5.801    c1.229,2.818,2.192,4.746,2.9,5.801l1.582,4.746c17.93-2.456,37.261-1.582,58.008,2.637c0-19.685-6.154-37.087-18.457-52.207    C286.488,168.128,270.848,179.202,250.809,187.285z M315.145,219.98c-21.447-4.219-38.677-5.273-51.68-3.164    c7.029,19.693,12.476,39.551,16.348,59.59C299.499,263.049,311.273,244.238,315.145,219.98z" fill="#FFFFFF"/></g></g></svg>