<?xml version="1.0" ?><!DOCTYPE svg  PUBLIC '-//W3C//DTD SVG 1.1//EN'  'http://www.w3.org/Graphics/SVG/1.1/DTD/svg11.dtd'><svg enable-background="new 0 0 462.2 400.277" height="400.277px" id="Icons" version="1.1" viewBox="0 0 462.2 400.277" width="462.2px" xml:space="preserve" xmlns="http://www.w3.org/2000/svg" xmlns:xlink="http://www.w3.org/1999/xlink"><g><g><polygon fill="#DA4437" points="115.55,400.277 0,200.138 115.55,0 346.65,0 462.2,200.138 346.65,400.277   "/></g><g opacity="0.4"><path d="M343.746,384.533c-28.312-6.653-56.445-14.238-83.839-24.052c-13.936-4.993-24.249-9.271-37.301-15.648    c-12.378-6.048-24.288-13.085-36.125-20.118c-17.018-10.111-33.677-20.823-49.957-32.082    c-16.781-11.606-31.169-22.454-46.351-34.968c-15.418-12.709-30.214-26.171-44.275-40.367    c-6.725-6.789-13.23-13.793-19.551-20.959c-3.311-3.753-6.541-7.578-9.725-11.44c-0.209-0.253-0.411-0.511-0.618-0.765    l-9.24,16.005l112.168,194.281h224.336l5.086-8.808C346.818,385.252,345.281,384.894,343.746,384.533z"/></g><g opacity="0.4"><path d="M334.899,9.641c0.426,4.126,1.034,8.243,1.721,12.342c4.023,23.981,12.6,47.607,22.77,69.599    c12.125,26.219,28.474,50.327,47.353,72.137c12.031,13.899,25.78,27.671,40.77,39.167l0.418-0.736L334.899,9.641z" fill="#FFFFFF"/></g><g><path d="M230.331,207.799c0,3.012,1.23,5.883,3.691,8.613c5.191,4.653,8.338,7.248,9.434,7.793    c4.371,3.281,7.793,6.152,10.254,8.613c3.551,3.012,6.563,7.114,9.023,12.305c2.73,4.653,4.102,10.119,4.102,16.406    c0,6.838-1.916,13.676-5.742,20.508c-5.742,9.299-13.945,16.271-24.609,20.918c-10.664,4.377-22.424,6.563-35.273,6.563    c-9.574,0-19.143-1.5-28.711-4.512c-9.023-3.281-15.727-8.748-20.098-16.406c-3.012-4.646-4.512-9.703-4.512-15.176    c0-6.011,1.775-11.895,5.332-17.637c3.826-5.467,8.473-9.979,13.945-13.535c10.664-6.563,26.385-10.389,47.168-11.484    c-2.191-3.006-3.967-6.011-5.332-9.023c-1.371-2.73-2.051-5.467-2.051-8.203c0-2.73,0.82-6.152,2.461-10.254    c-2.191,0.275-4.787,0.41-7.793,0.41c-11.76,0-21.469-3.691-29.121-11.074c-7.934-7.652-11.895-17.227-11.895-28.711    c0-6.832,1.365-12.984,4.102-18.457c3.006-6.563,6.832-11.753,11.484-15.586c6.832-5.467,13.945-9.292,21.328-11.484    c8.473-2.461,17.086-3.691,25.84-3.691h48.809l-15.996,10.254h-15.586c5.742,4.922,10.113,10.119,13.125,15.586    c3.006,5.473,4.512,11.76,4.512,18.867c0,6.018-0.961,11.074-2.871,15.176c-2.461,5.197-4.787,8.754-6.973,10.664    c-1.641,1.916-4.377,4.512-8.203,7.793c-3.832,4.102-6.152,6.563-6.973,7.383C231.286,203.428,230.331,205.889,230.331,207.799z     M213.515,298.854c4.646,0,9.023-0.41,13.125-1.23c5.467-1.641,9.293-3.14,11.484-4.512c3.551-1.91,6.422-4.781,8.613-8.613    c2.186-3.826,3.281-8.062,3.281-12.715c0-1.641-0.275-3.55-0.82-5.742c0-0.545-0.141-1.16-0.41-1.846    c-0.275-0.679-0.551-1.294-0.82-1.846c-0.275-0.545-0.41-0.955-0.41-1.23c-1.096-2.186-2.191-3.826-3.281-4.922l-3.281-4.102    c-1.641-1.641-3.146-3.006-4.512-4.102c-1.916-1.641-3.422-2.73-4.512-3.281c0-0.269-1.641-1.5-4.922-3.691    c-2.191-1.91-3.557-2.871-4.102-2.871c-0.82-0.269-2.736-0.41-5.742-0.41c-2.736,0-6.838,0.275-12.305,0.82    c-2.736,0.275-6.838,1.23-12.305,2.871c-4.652,1.641-8.479,3.422-11.484,5.332c-3.557,2.736-6.293,5.742-8.203,9.023    c-1.916,3.012-2.871,7.114-2.871,12.305c0,5.742,1.365,10.529,4.102,14.355c2.461,4.102,6.012,7.383,10.664,9.844    c5.191,2.461,9.844,4.102,13.945,4.922C203.12,298.309,208.042,298.854,213.515,298.854z M213.515,196.725    c2.461,0,5.467-0.679,9.023-2.051c3.281-1.365,5.877-3.006,7.793-4.922c4.102-4.646,6.152-10.933,6.152-18.867    c0-4.102-0.686-8.882-2.051-14.355c-1.096-4.646-3.012-9.703-5.742-15.176c-2.461-4.922-5.742-9.023-9.844-12.305    c-4.102-3.281-8.613-4.922-13.535-4.922c-3.281,0-6.563,0.82-9.844,2.461c-3.012,1.641-5.607,3.691-7.793,6.152    c-3.557,4.377-5.332,10.664-5.332,18.867c0,3.557,0.41,7.383,1.23,11.484s2.051,8.068,3.691,11.895    c1.641,4.377,3.691,7.934,6.152,10.664c1.91,3.012,4.781,5.742,8.613,8.203C205.036,195.77,208.862,196.725,213.515,196.725z     M308.671,196.315h24.609v12.715h-24.609v25.84h-12.305v-25.84h-25.02v-12.715h25.02v-25.43h12.305V196.315z" fill="#FFFFFF"/></g></g></svg>