<?xml version="1.0" ?><!DOCTYPE svg  PUBLIC '-//W3C//DTD SVG 1.1//EN'  'http://www.w3.org/Graphics/SVG/1.1/DTD/svg11.dtd'><svg enable-background="new 0 0 462.2 400.277" height="400.277px" id="Icons" version="1.1" viewBox="0 0 462.2 400.277" width="462.2px" xml:space="preserve" xmlns="http://www.w3.org/2000/svg" xmlns:xlink="http://www.w3.org/1999/xlink"><g><g><polygon fill="#823993" points="115.55,400.277 0,200.138 115.55,0 346.65,0 462.2,200.138 346.65,400.277   "/></g><g opacity="0.4"><path d="M343.746,384.533c-28.312-6.653-56.445-14.238-83.839-24.052c-13.936-4.993-24.249-9.271-37.301-15.648    c-12.378-6.048-24.288-13.085-36.125-20.118c-17.018-10.111-33.677-20.823-49.957-32.082    c-16.781-11.606-31.169-22.454-46.351-34.968c-15.418-12.709-30.214-26.171-44.275-40.367    c-6.725-6.789-13.23-13.793-19.551-20.959c-3.311-3.753-6.541-7.578-9.725-11.44c-0.209-0.253-0.411-0.511-0.618-0.765    l-9.24,16.005l112.168,194.281h224.336l5.086-8.808C346.818,385.252,345.281,384.894,343.746,384.533z"/></g><g opacity="0.4"><path d="M334.899,9.641c0.426,4.126,1.034,8.243,1.721,12.342c4.023,23.981,12.6,47.607,22.77,69.599    c12.125,26.219,28.474,50.327,47.353,72.137c12.031,13.899,25.78,27.671,40.77,39.167l0.418-0.736L334.899,9.641z" fill="#FFFFFF"/></g><g><path d="M296.153,118.251c7.928,0,14.49,2.736,19.688,8.203c5.467,5.197,8.203,11.76,8.203,19.688v30.762h-45.527    c-11.215-15.311-26.115-22.969-44.707-22.969c-19.143,0-34.043,7.658-44.707,22.969h-45.527v-30.762    c0-7.928,2.73-14.49,8.203-19.688c5.191-5.467,11.754-8.203,19.688-8.203H296.153z M288.36,208.485    c0-3.281-0.41-6.832-1.23-10.664h36.914v72.598c0,7.934-2.736,14.631-8.203,20.098c-5.473,5.473-12.035,8.203-19.688,8.203    H171.466c-7.658,0-14.221-2.73-19.688-8.203c-5.473-5.467-8.203-12.164-8.203-20.098v-72.598h36.504    c-0.551,6.018-0.82,9.574-0.82,10.664c0,14.766,5.332,27.621,15.996,38.555c10.664,10.664,23.514,15.996,38.555,15.996    c14.766,0,27.615-5.332,38.555-15.996C283.028,236.106,288.36,223.251,288.36,208.485z M257.598,232.274    c-6.562,6.563-14.496,9.844-23.789,9.844c-9.299,0-17.227-3.281-23.789-9.844s-9.844-14.49-9.844-23.789    c0-9.844,3.281-17.771,9.844-23.789c6.563-6.563,14.49-9.844,23.789-9.844c9.293,0,17.227,3.281,23.789,9.844    c6.563,6.018,9.844,13.945,9.844,23.789C267.442,217.784,264.161,225.711,257.598,232.274z M309.278,153.114v-15.176    c0-3.281-1.641-4.922-4.922-4.922H289.18c-3.281,0-4.922,1.641-4.922,4.922v15.176c0,0.82,0.41,1.916,1.23,3.281    c1.09,1.096,2.32,1.641,3.691,1.641h15.176C307.637,158.036,309.278,156.395,309.278,153.114z" fill="#FFFFFF"/></g></g></svg>